<svg width="38" height="9" viewBox="0 0 38 9" fill="none" xmlns="http://www.w3.org/2000/svg">
<path d="M22.045 7.11264C22.045 7.177 22.0678 7.21426 22.1096 7.21426C22.1438 7.21087 22.1742 7.19732 22.2008 7.18039L34.044 0.328045C34.2442 0.203352 34.4839 0.139235 34.728 0.145136H37.3307C37.7296 0.145136 37.9994 0.382241 37.9994 0.737899V5.16838C37.9994 5.70356 37.8664 6.01518 37.3345 6.29971L34.177 7.99332C34.1456 8.0128 34.1088 8.02449 34.0706 8.02719C34.0326 8.02719 33.9947 8.00009 33.9947 7.90186V2.73297C33.9947 2.672 33.9757 2.63135 33.9301 2.63135C33.8967 2.63478 33.8651 2.64652 33.8389 2.66523L25.1835 7.67831C24.9859 7.79686 24.7541 7.86122 24.5186 7.85783H18.7812C18.3785 7.85783 18.1125 7.62073 18.1125 7.26168V0.876775C18.1125 0.829354 18.0897 0.78532 18.0441 0.78532C18.0108 0.789084 17.9793 0.800787 17.9529 0.819192L12.2422 3.87446C12.1852 3.90833 12.17 3.93204 12.17 3.95576C12.17 3.97608 12.1814 3.9964 12.2194 4.03366L16.3001 7.66815C16.3533 7.71557 16.3913 7.75283 16.3913 7.79347C16.3913 7.82735 16.3305 7.85444 16.2583 7.85444H12.5727C12.284 7.85444 12.0598 7.81718 11.904 7.67831L9.43051 5.47662C9.42113 5.46662 9.40954 5.45845 9.39647 5.45262C9.38339 5.4468 9.36911 5.44343 9.35451 5.44274C9.32769 5.44385 9.30159 5.45083 9.27852 5.46307L5.1446 7.67831C4.89383 7.8138 4.72285 7.85106 4.47588 7.85106H0.672522C0.265969 7.85444 0 7.61395 0 7.25829V2.91249C0 2.37392 0.132985 2.06569 0.668722 1.78116L3.84515 0.0807784C3.87007 0.0662298 3.89898 0.0580307 3.92874 0.0570679C3.97814 0.0570679 4.00473 0.101102 4.00473 0.199331V6.01857C4.00473 6.07954 4.01993 6.10664 4.06933 6.10664C4.10352 6.10325 4.13392 6.0897 4.16432 6.07277L14.8943 0.317884C15.0994 0.192557 15.3502 0.131587 15.601 0.141748H21.3763C21.7753 0.141748 22.045 0.378854 22.045 0.734511L22.0412 7.11264H22.045Z" fill="#131E29"/>
</svg>
